<?xml version="1.0" encoding="UTF-8" standalone="no"?>
<!DOCTYPE svg PUBLIC "-//W3C//DTD SVG 1.1//EN"
 "http://www.w3.org/Graphics/SVG/1.1/DTD/svg11.dtd">
<!-- Generated by graphviz version 2.40.1 (20161225.0304)
 -->
<!-- Title: state transitions Pages: 1 -->
<svg width="340pt" height="282pt"
 viewBox="0.00 0.00 340.00 282.00" xmlns="http://www.w3.org/2000/svg" xmlns:xlink="http://www.w3.org/1999/xlink">
<g id="graph0" class="graph" transform="scale(1 1) rotate(0) translate(4 278)">
<title>state transitions</title>
<polygon fill="#ffffff" stroke="transparent" points="-4,4 -4,-278 336,-278 336,4 -4,4"/>
<g id="clust1" class="cluster state regular">
<title>cluster_state</title>
<path fill="none" stroke="#000000" stroke-width="2" d="M20,-8C20,-8 312,-8 312,-8 318,-8 324,-14 324,-20 324,-20 324,-254 324,-254 324,-260 318,-266 312,-266 312,-266 20,-266 20,-266 14,-266 8,-260 8,-254 8,-254 8,-20 8,-20 8,-14 14,-8 20,-8"/>
<text text-anchor="start" x="152.9944" y="-247.2" font-family="Helvetica,sans-Serif" font-size="12.00" fill="#000000">state</text>
</g>
<!-- state -->
<!-- IDLE -->
<g id="node2" class="node state regular">
<title>IDLE</title>
<polygon fill="#ffffff" fill-opacity="0.003922" stroke="transparent" stroke-width="2" points="111,-228 55,-228 55,-192 111,-192 111,-228"/>
<text text-anchor="start" x="69.6644" y="-206.2" font-family="Helvetica,sans-Serif" font-size="12.00" fill="#000000">IDLE</text>
<path fill="none" stroke="#000000" stroke-width="2" d="M67.3333,-193C67.3333,-193 98.6667,-193 98.6667,-193 104.3333,-193 110,-198.6667 110,-204.3333 110,-204.3333 110,-215.6667 110,-215.6667 110,-221.3333 104.3333,-227 98.6667,-227 98.6667,-227 67.3333,-227 67.3333,-227 61.6667,-227 56,-221.3333 56,-215.6667 56,-215.6667 56,-204.3333 56,-204.3333 56,-198.6667 61.6667,-193 67.3333,-193"/>
</g>
<!-- IDLE&#45;&gt;IDLE -->
<g id="edge2" class="edge transition">
<title>IDLE&#45;&gt;IDLE</title>
<path fill="none" stroke="#000000" d="M111.0183,-214.8247C122.888,-215.1883 133,-213.5801 133,-210 133,-207.5387 128.2205,-206.0094 121.3762,-205.4121"/>
<polygon fill="#000000" stroke="#000000" points="121.0957,-201.9049 111.0183,-205.1753 120.9356,-208.903 121.0957,-201.9049"/>
<text text-anchor="start" x="133" y="-207" font-family="Helvetica,sans-Serif" font-size="10.00" fill="#000000">not (cap_trig=&#39;1&#39;) &#160;&#160;</text>
</g>
<!-- CAPTURE -->
<g id="node3" class="node state regular">
<title>CAPTURE</title>
<polygon fill="#ffffff" fill-opacity="0.003922" stroke="transparent" stroke-width="2" points="94.5,-146 15.5,-146 15.5,-110 94.5,-110 94.5,-146"/>
<text text-anchor="start" x="26.8362" y="-124.2" font-family="Helvetica,sans-Serif" font-size="12.00" fill="#000000">CAPTURE</text>
<path fill="none" stroke="#000000" stroke-width="2" d="M27.8333,-111C27.8333,-111 82.1667,-111 82.1667,-111 87.8333,-111 93.5,-116.6667 93.5,-122.3333 93.5,-122.3333 93.5,-133.6667 93.5,-133.6667 93.5,-139.3333 87.8333,-145 82.1667,-145 82.1667,-145 27.8333,-145 27.8333,-145 22.1667,-145 16.5,-139.3333 16.5,-133.6667 16.5,-133.6667 16.5,-122.3333 16.5,-122.3333 16.5,-116.6667 22.1667,-111 27.8333,-111"/>
</g>
<!-- IDLE&#45;&gt;CAPTURE -->
<g id="edge1" class="edge transition">
<title>IDLE&#45;&gt;CAPTURE</title>
<path fill="none" stroke="#000000" d="M76.7859,-191.8015C73.1608,-181.1853 68.5146,-167.5784 64.4448,-155.6596"/>
<polygon fill="#000000" stroke="#000000" points="67.7405,-154.4801 61.1967,-146.1476 61.116,-156.7421 67.7405,-154.4801"/>
<text text-anchor="start" x="70" y="-166" font-family="Helvetica,sans-Serif" font-size="10.00" fill="#000000">cap_trig=&#39;1&#39; &#160;&#160;</text>
</g>
<!-- CAPTURE&#45;&gt;CAPTURE -->
<g id="edge4" class="edge transition">
<title>CAPTURE&#45;&gt;CAPTURE</title>
<path fill="none" stroke="#000000" d="M94.6309,-132.8702C106.8806,-132.7719 116.5,-131.1484 116.5,-128 116.5,-125.7863 111.7443,-124.3265 104.6625,-123.6206"/>
<polygon fill="#000000" stroke="#000000" points="104.7901,-120.1228 94.6309,-123.1298 104.4479,-127.1144 104.7901,-120.1228"/>
<text text-anchor="start" x="116.5" y="-131" font-family="Helvetica,sans-Serif" font-size="10.00" fill="#000000">A_TVALID=&#39;1&#39; AND (fifo_trdy=&#39;1&#39;) &#160;&#160;</text>
<text text-anchor="start" x="116.5" y="-119" font-family="Helvetica,sans-Serif" font-size="10.00" fill="#000000">not (fifo_cnt&#45;1 = 0) &#160;&#160;</text>
</g>
<!-- TLAST -->
<g id="node4" class="node state regular">
<title>TLAST</title>
<polygon fill="#ffffff" fill-opacity="0.003922" stroke="transparent" stroke-width="2" points="200.5,-52 141.5,-52 141.5,-16 200.5,-16 200.5,-52"/>
<text text-anchor="start" x="152.831" y="-30.2" font-family="Helvetica,sans-Serif" font-size="12.00" fill="#000000">TLAST</text>
<path fill="none" stroke="#000000" stroke-width="2" d="M153.8333,-17C153.8333,-17 188.1667,-17 188.1667,-17 193.8333,-17 199.5,-22.6667 199.5,-28.3333 199.5,-28.3333 199.5,-39.6667 199.5,-39.6667 199.5,-45.3333 193.8333,-51 188.1667,-51 188.1667,-51 153.8333,-51 153.8333,-51 148.1667,-51 142.5,-45.3333 142.5,-39.6667 142.5,-39.6667 142.5,-28.3333 142.5,-28.3333 142.5,-22.6667 148.1667,-17 153.8333,-17"/>
</g>
<!-- CAPTURE&#45;&gt;TLAST -->
<g id="edge3" class="edge transition">
<title>CAPTURE&#45;&gt;TLAST</title>
<path fill="none" stroke="#000000" d="M77.366,-109.8759C95.4196,-95.2462 120.9936,-74.5224 140.8538,-58.4288"/>
<polygon fill="#000000" stroke="#000000" points="143.1369,-61.0836 148.7027,-52.0685 138.7298,-55.6451 143.1369,-61.0836"/>
<text text-anchor="start" x="127" y="-84" font-family="Helvetica,sans-Serif" font-size="10.00" fill="#000000">fifo_cnt&#45;1 = 0 &#160;&#160;</text>
<text text-anchor="start" x="127" y="-72" font-family="Helvetica,sans-Serif" font-size="10.00" fill="#000000">A_TVALID=&#39;1&#39; AND (fifo_trdy=&#39;1&#39;) &#160;&#160;</text>
</g>
<!-- TLAST&#45;&gt;IDLE -->
<g id="edge5" class="edge transition">
<title>TLAST&#45;&gt;IDLE</title>
<path fill="none" stroke="#000000" d="M200.7679,-37.7374C242.4068,-43.811 313,-57.5638 313,-81 313,-169 313,-169 313,-169 313,-188.2106 187.0345,-201.4422 121.5454,-207.0232"/>
<polygon fill="#000000" stroke="#000000" points="120.8778,-203.5666 111.2025,-207.8839 121.4583,-210.5425 120.8778,-203.5666"/>
<text text-anchor="middle" x="314.3895" y="-125" font-family="Helvetica,sans-Serif" font-size="10.00" fill="#000000"> </text>
</g>
</g>
</svg>
